<?xml version="1.0" encoding="utf-8"?>
<!-- Generator: Adobe Illustrator 21.0.0, SVG Export Plug-In . SVG Version: 6.00 Build 0)  -->
<svg version="1.1" id="图层_1" xmlns="http://www.w3.org/2000/svg" xmlns:xlink="http://www.w3.org/1999/xlink" x="0px" y="0px"
	 viewBox="0 0 129 56" style="enable-background:new 0 0 129 56;" xml:space="preserve">
<style type="text/css">
	.st0{fill:#2196F3;}
</style>
<path class="st0" d="M126.6,39h-1.2l-4.4-11.2c-0.4-1.2-0.7-2-0.8-2.4h-0.1c0,0.2-0.1,0.5-0.1,0.8c0,0.3-0.7,4.6-1.9,12.7H117
	l2.4-16h1.2l4.9,12.6l0.3,0.8h0c0-0.5,0.1-1,0.2-1.6c0.1-0.6,0.7-4.5,1.7-11.9h1.3L126.6,39z M110.7,24.8c-0.6-0.2-1.2-0.3-1.8-0.3
	c-1.2,0-2.2,0.3-3.2,0.9c-0.9,0.6-1.7,1.5-2.2,2.6c-0.5,1.1-0.8,2.4-0.8,3.8c0,1.7,0.4,3.1,1.2,4c0.8,1,1.9,1.5,3.3,1.5
	c1.1,0,2.1-0.2,3-0.7L111,32h-3v-2h5l-1.3,7.8c-1.5,0.8-3,1.2-4.5,1.2c-1.9,0-3.4-0.6-4.5-1.9c-1.1-1.3-1.7-2.9-1.7-5
	c0-1.7,0.3-3.3,1-4.6c0.7-1.4,1.6-2.5,2.8-3.3s2.6-1.2,4.1-1.2c1.4,0,2.8,0.3,4,1l-0.3,1.7C111.9,25.3,111.3,25,110.7,24.8z M93,39
	l3.2-16H98l-3.2,16H93z M86.3,24.6c-1.1,0-1.9,0.2-2.5,0.7c-0.6,0.5-0.9,1.1-0.9,1.8c0,0.6,0.2,1.2,0.6,1.6c0.4,0.5,1.1,1,2.1,1.7
	c1.2,0.7,2,1.4,2.5,2.1c0.5,0.7,0.8,1.4,0.8,2.2c0,1.3-0.5,2.3-1.5,3.1c-1,0.8-2.3,1.2-4,1.2c-0.9,0-1.7-0.1-2.5-0.3
	c-0.8-0.2-1.4-0.4-1.9-0.7l0.3-1.8c1.3,0.9,2.7,1.3,4.1,1.3c1.2,0,2.1-0.2,2.7-0.7c0.6-0.5,0.9-1.1,0.9-1.9c0-0.5-0.2-1-0.5-1.5
	c-0.4-0.4-1.1-1.1-2.3-1.8c-1.1-0.7-2-1.4-2.4-2.1c-0.5-0.6-0.7-1.4-0.7-2.2c0-1.2,0.5-2.3,1.5-3.1c1-0.8,2.3-1.2,3.9-1.2
	c1.2,0,2.4,0.2,3.6,0.7l-0.3,1.7C88.6,24.8,87.5,24.6,86.3,24.6z M71,24.7l-1.1,5.4H76l-0.4,1.6h-6.2l-1.2,5.6h7.1L75,39h-9l3.4-16
	H78l-0.4,1.7H71z M59,37.5c-1.6,1-3.5,1.5-5.7,1.5H48l3.8-21h4.5c2.4,0,4.3,0.8,5.7,2.2s2,3.6,2,6.3c0,2.5-0.4,4.7-1.3,6.6
	C61.8,35,60.6,36.4,59,37.5z M55.9,19.7h-2.8l-3.2,17.5h3.5c2.8,0,4.9-0.9,6.5-2.8s2.4-4.5,2.4-7.8C62.3,22,60.2,19.7,55.9,19.7z
	 M43.5,39c-0.4,0-0.7-0.1-1-0.4c-0.3-0.3-0.4-0.6-0.4-1.1c0-0.4,0.1-0.8,0.4-1.1s0.6-0.4,1-0.4c0.4,0,0.8,0.1,1.1,0.4
	c0.3,0.3,0.4,0.6,0.4,1.1c0,0.4-0.2,0.8-0.5,1.1C44.3,38.9,43.9,39,43.5,39z M35.8,37.4c-1.1,1-2.8,1.6-4.8,1.6
	c-1.7,0-2.7-0.4-3.6-1.3C26.4,36.9,26,35.7,26,34c0-0.6,0.1-1.3,0.2-2L28,23l2,0l-1.9,8.7c-0.1,0.7-0.2,1.4-0.2,2
	c0,1.2,0.3,2.2,0.8,2.8c0.6,0.6,1.4,0.9,2.6,0.9c1.4,0,2.5-0.4,3.3-1.2c0.8-0.8,1.4-2.2,1.8-4.1L38,23h2l-1.8,9.2
	C37.7,34.6,36.9,36.4,35.8,37.4z M9.2,30.7L0,40v-8.5l5-5l-5-4.9V16h2.8L24,40h-5.3L9.2,30.7z M11.3,20.2l4.2-4.2H24l-9,9L11.3,20.2
	z"/>
</svg>
